<svg width="398" height="152" viewBox="0 0 398 152" fill="none" xmlns="http://www.w3.org/2000/svg">
<path d="M0 0.000244141H43V151.659H0V0.000244141Z" fill="#B508FF"/>
<path d="M67 75.9319V151.659H88.4884H109.977V75.9319V0.204815H88.4884H67V75.9319Z" fill="#B508FF"/>
<path d="M118.972 16.8851V33.6679L129.166 34.2819C138.661 34.7936 139.561 34.9982 141.66 37.5566C143.659 39.9103 143.958 41.3429 143.958 49.1203C143.958 54.0323 143.659 59.0467 143.359 60.377C142.359 64.1634 138.062 65.6984 127.967 65.6984H118.972V82.9928V100.39L123.17 100.697L127.467 101.004L136.562 126.075L145.757 151.147L168.845 151.454C181.538 151.557 191.932 151.557 191.932 151.352C191.932 151.147 187.035 138.56 181.038 123.415L170.144 95.8869L172.243 94.4543C173.442 93.6356 176.541 90.7702 179.139 88.1095C185.536 81.4578 187.835 73.6805 188.634 55.9767C189.734 29.8815 185.736 14.8384 175.641 7.67506C167.246 1.84202 162.748 0.921017 139.761 0.409347L118.972 1.11662e-05V16.8851Z" fill="#B508FF"/>
<path d="M215.932 0H258.932V151.659H215.932V0Z" fill="#B508FF"/>
<path d="M316.492 0.99607C304.642 2.98765 294.983 8.06618 290.402 14.8375C285.025 22.6047 283.531 28.2807 283.033 43.3171C282.535 60.2455 283.83 68.6102 288.112 75.8794C294.385 86.3352 304.044 90.418 331.13 93.6045C351.942 96.094 352.44 96.2931 353.635 99.2805C354.132 100.575 354.531 112.823 354.531 126.366V151.161L359.311 150.663C381.019 148.572 392.271 139.311 396.454 119.993C397.151 116.707 397.748 108.243 397.648 101.073C397.549 75.4811 391.375 63.7308 375.741 59.4489C372.555 58.5527 360.804 56.6607 349.552 55.2666C338.399 53.8725 328.64 52.1797 327.943 51.5822C326.947 50.7855 326.649 44.7112 326.649 25.2933V0.000280216L323.96 0.0998592C322.367 0.199438 319.081 0.597754 316.492 0.99607Z" fill="#B508FF"/>
<path d="M334.615 16.9287V33.8571L342.382 33.2597C349.253 32.7618 373.451 33.9567 385.699 35.55L390.379 36.1475V20.1152V4.18262L384.205 3.08725C372.156 1.09567 359.908 0.000300534 347.361 0.000300534H334.615V16.9287Z" fill="#B508FF"/>
<path d="M286.817 131.146C286.817 140.108 287.116 147.377 287.614 147.377C288.012 147.377 293.688 148.074 300.26 148.871C306.833 149.568 319.977 150.564 329.437 150.962L346.565 151.659L346.365 134.432L346.067 117.304L332.126 117.404C324.458 117.404 311.114 116.906 302.551 116.209L286.817 115.014V131.146Z" fill="#B508FF"/>
</svg>
