<svg width="920" height="522" viewBox="0 0 920 522" fill="none" xmlns="http://www.w3.org/2000/svg">
<path d="M81.2953 383.281L158.946 177.774L178.357 169.58C178.357 169.58 162.159 306.21 184.866 331.721C207.572 357.232 370.062 335.612 370.062 335.612C370.062 335.612 123.715 425.44 115.447 425.354C107.179 425.269 98.0402 424.488 88.311 410.417C78.5819 396.346 81.2953 383.281 81.2953 383.281Z" fill="url(#paint0_linear_12_94)"/>
<path d="M120.886 357.097L178.356 169.6C178.356 169.6 163.166 304.188 185.872 329.7C208.579 355.211 370.256 335.536 370.256 335.536C370.256 335.536 163.306 399.256 155.037 399.17C146.769 399.085 137.63 398.304 127.901 384.233C118.172 370.162 120.886 357.097 120.886 357.097Z" fill="url(#paint1_linear_12_94)"/>
<path d="M381.73 319.072L170.751 356.334L153.907 343.417C153.907 343.417 275.865 287.368 285.339 254.188C294.813 221.008 192.674 88.5375 192.674 88.5375C192.674 88.5375 394.855 259.917 399.057 267.261C403.26 274.604 407.334 283.073 400.663 298.907C393.993 314.741 381.73 319.072 381.73 319.072Z" fill="url(#paint2_linear_12_94)"/>
<path d="M339.501 297.604L154.001 343.306C154.001 343.306 273.664 287.521 283.138 254.341C292.612 221.161 192.699 88.5636 192.699 88.5636C192.699 88.5636 352.626 238.449 356.829 245.792C361.031 253.136 365.105 261.605 358.435 277.439C351.764 293.273 339.501 297.604 339.501 297.604Z" fill="url(#paint3_linear_12_94)"/>
<path d="M156.926 70.8489L305.635 229.737L304.753 251.341C304.753 251.341 191.095 178.862 159.131 189.411C127.167 199.959 78.4475 361.068 78.4475 361.068C78.4475 361.068 102.06 92.8631 105.587 85.1607C109.114 77.4582 113.617 69.2331 130.081 66.0308C146.545 62.8286 156.926 70.8489 156.926 70.8489Z" fill="url(#paint4_linear_12_94)"/>
<path d="M163.476 118.886L304.716 251.361C304.716 251.361 192.456 180.652 160.493 191.201C128.529 201.749 78.3728 361.316 78.3728 361.316C78.3728 361.316 108.609 140.9 112.137 133.198C115.664 125.495 120.167 117.27 136.63 114.068C153.094 110.866 163.476 118.886 163.476 118.886Z" fill="url(#paint5_linear_12_94)"/>
<path d="M521.511 184.677H564.511V336.336H521.511V184.677Z" fill="white"/>
<path d="M588.511 260.609V336.336H610H631.488V260.609V184.882H610H588.511V260.609Z" fill="white"/>
<path d="M640.483 201.562V218.345L650.678 218.959C660.173 219.47 661.072 219.675 663.171 222.233C665.17 224.587 665.47 226.02 665.47 233.797C665.47 238.709 665.17 243.723 664.87 245.054C663.871 248.84 659.573 250.375 649.478 250.375H640.483V267.67V285.066L644.681 285.373L648.979 285.68L658.074 310.752L667.269 335.824L690.356 336.131C703.049 336.233 713.444 336.233 713.444 336.029C713.444 335.824 708.546 323.237 702.55 308.092L691.655 280.564L693.754 279.131C694.954 278.312 698.052 275.447 700.651 272.786C707.047 266.135 709.346 258.357 710.145 240.653C711.245 214.558 707.247 199.515 697.153 192.352C688.757 186.519 684.259 185.598 661.272 185.086L640.483 184.677V201.562Z" fill="white"/>
<path d="M737.444 184.677H780.444V336.336H737.444V184.677Z" fill="white"/>
<path d="M838.003 185.673C826.153 187.664 816.494 192.743 811.913 199.514C806.536 207.281 805.042 212.957 804.544 227.994C804.046 244.922 805.341 253.287 809.623 260.556C815.896 271.012 825.555 275.095 852.641 278.281C873.453 280.771 873.951 280.97 875.146 283.957C875.644 285.252 876.042 297.5 876.042 311.043V335.838L880.822 335.34C902.53 333.249 913.782 323.988 917.965 304.67C918.662 301.384 919.259 292.919 919.16 285.75C919.06 260.158 912.886 248.408 897.252 244.126C894.066 243.229 882.315 241.337 871.063 239.943C859.91 238.549 850.151 236.856 849.454 236.259C848.459 235.462 848.16 229.388 848.16 209.97V184.677L845.471 184.777C843.878 184.876 840.592 185.275 838.003 185.673Z" fill="white"/>
<path d="M856.126 201.605V218.534L863.893 217.936C870.764 217.439 894.962 218.633 907.21 220.227L911.89 220.824V204.792V188.859L905.717 187.764C893.667 185.772 881.419 184.677 868.872 184.677H856.126V201.605Z" fill="white"/>
<path d="M808.328 315.823C808.328 324.785 808.627 332.054 809.125 332.054C809.523 332.054 815.199 332.751 821.772 333.548C828.344 334.245 841.488 335.24 850.948 335.639L868.076 336.336L867.877 319.109L867.578 301.981L853.637 302.081C845.969 302.081 832.626 301.583 824.062 300.886L808.328 299.691V315.823Z" fill="white"/>
<defs>
<linearGradient id="paint0_linear_12_94" x1="260.648" y1="420.353" x2="101.035" y2="219.525" gradientUnits="userSpaceOnUse">
<stop offset="0.335207" stop-color="#686868"/>
<stop offset="1" stop-color="white"/>
</linearGradient>
<linearGradient id="paint1_linear_12_94" x1="282.147" y1="401.593" x2="139.381" y2="201.706" gradientUnits="userSpaceOnUse">
<stop offset="0.172321" stop-color="white"/>
<stop offset="0.92758" stop-color="#686868"/>
</linearGradient>
<linearGradient id="paint2_linear_12_94" x1="319.858" y1="141.654" x2="223.524" y2="381.188" gradientUnits="userSpaceOnUse">
<stop offset="0.335207" stop-color="#686868"/>
<stop offset="1" stop-color="white"/>
</linearGradient>
<linearGradient id="paint3_linear_12_94" x1="293.151" y1="132.334" x2="189.414" y2="356.023" gradientUnits="userSpaceOnUse">
<stop offset="0.172321" stop-color="white"/>
<stop offset="0.92758" stop-color="#686868"/>
</linearGradient>
<linearGradient id="paint4_linear_12_94" x1="49.3771" y1="223.151" x2="295.309" y2="168.319" gradientUnits="userSpaceOnUse">
<stop offset="0.335207" stop-color="#686868"/>
<stop offset="1" stop-color="white"/>
</linearGradient>
<linearGradient id="paint5_linear_12_94" x1="291.911" y1="196.733" x2="54.5871" y2="237.459" gradientUnits="userSpaceOnUse">
<stop offset="0.172321" stop-color="#686868"/>
<stop offset="0.92758" stop-color="white"/>
</linearGradient>
</defs>
</svg>
