<svg width="522" height="522" viewBox="0 0 522 522" fill="none" xmlns="http://www.w3.org/2000/svg">
<path d="M81.2953 383.281L158.946 177.774L178.357 169.58C178.357 169.58 162.159 306.21 184.866 331.721C207.572 357.232 370.062 335.612 370.062 335.612C370.062 335.612 123.715 425.44 115.447 425.354C107.179 425.269 98.0402 424.488 88.311 410.417C78.5819 396.346 81.2953 383.281 81.2953 383.281Z" fill="url(#paint0_linear_12_3)"/>
<path d="M120.886 357.097L178.356 169.6C178.356 169.6 163.166 304.188 185.872 329.7C208.579 355.211 370.256 335.536 370.256 335.536C370.256 335.536 163.306 399.256 155.037 399.17C146.769 399.085 137.63 398.304 127.901 384.233C118.172 370.162 120.886 357.097 120.886 357.097Z" fill="url(#paint1_linear_12_3)"/>
<path d="M381.73 319.072L170.751 356.334L153.907 343.417C153.907 343.417 275.865 287.368 285.339 254.188C294.813 221.008 192.674 88.5376 192.674 88.5376C192.674 88.5376 394.855 259.917 399.057 267.261C403.26 274.604 407.334 283.073 400.663 298.907C393.993 314.741 381.73 319.072 381.73 319.072Z" fill="url(#paint2_linear_12_3)"/>
<path d="M339.501 297.604L154.001 343.306C154.001 343.306 273.664 287.521 283.138 254.341C292.612 221.161 192.699 88.5636 192.699 88.5636C192.699 88.5636 352.626 238.449 356.829 245.792C361.031 253.136 365.105 261.605 358.435 277.439C351.764 293.273 339.501 297.604 339.501 297.604Z" fill="url(#paint3_linear_12_3)"/>
<path d="M156.926 70.849L305.635 229.737L304.753 251.341C304.753 251.341 191.095 178.862 159.131 189.411C127.167 199.959 78.4475 361.068 78.4475 361.068C78.4475 361.068 102.06 92.8631 105.587 85.1607C109.114 77.4582 113.617 69.2331 130.081 66.0308C146.545 62.8286 156.926 70.849 156.926 70.849Z" fill="url(#paint4_linear_12_3)"/>
<path d="M163.476 118.886L304.716 251.361C304.716 251.361 192.456 180.652 160.493 191.201C128.529 201.749 78.3728 361.316 78.3728 361.316C78.3728 361.316 108.609 140.9 112.137 133.198C115.664 125.495 120.167 117.27 136.63 114.068C153.094 110.866 163.476 118.886 163.476 118.886Z" fill="url(#paint5_linear_12_3)"/>
<defs>
<linearGradient id="paint0_linear_12_3" x1="260.648" y1="420.353" x2="101.035" y2="219.525" gradientUnits="userSpaceOnUse">
<stop offset="0.335207" stop-color="#686868"/>
<stop offset="1" stop-color="white"/>
</linearGradient>
<linearGradient id="paint1_linear_12_3" x1="282.147" y1="401.593" x2="139.381" y2="201.706" gradientUnits="userSpaceOnUse">
<stop offset="0.172321" stop-color="white"/>
<stop offset="0.92758" stop-color="#686868"/>
</linearGradient>
<linearGradient id="paint2_linear_12_3" x1="319.858" y1="141.654" x2="223.524" y2="381.189" gradientUnits="userSpaceOnUse">
<stop offset="0.335207" stop-color="#686868"/>
<stop offset="1" stop-color="white"/>
</linearGradient>
<linearGradient id="paint3_linear_12_3" x1="293.151" y1="132.334" x2="189.414" y2="356.023" gradientUnits="userSpaceOnUse">
<stop offset="0.172321" stop-color="white"/>
<stop offset="0.92758" stop-color="#686868"/>
</linearGradient>
<linearGradient id="paint4_linear_12_3" x1="49.3771" y1="223.151" x2="295.309" y2="168.319" gradientUnits="userSpaceOnUse">
<stop offset="0.335207" stop-color="#686868"/>
<stop offset="1" stop-color="white"/>
</linearGradient>
<linearGradient id="paint5_linear_12_3" x1="291.911" y1="196.733" x2="54.5871" y2="237.459" gradientUnits="userSpaceOnUse">
<stop offset="0.172321" stop-color="#686868"/>
<stop offset="0.92758" stop-color="white"/>
</linearGradient>
</defs>
</svg>
