<svg width="72" height="72" viewBox="0 0 72 72" fill="none" xmlns="http://www.w3.org/2000/svg">
<path d="M11.1146 52.4017L21.7309 24.3051L24.3847 23.1848C24.3847 23.1848 22.1702 41.8646 25.2746 45.3525C28.379 48.8403 50.5944 45.8844 50.5944 45.8844C50.5944 45.8844 16.9142 58.1656 15.7837 58.1539C14.6533 58.1422 13.4039 58.0355 12.0737 56.1117C10.7436 54.1879 11.1146 52.4017 11.1146 52.4017Z" fill="url(#paint0_linear_12_5)"/>
<path d="M16.5272 48.8219L24.3845 23.1874C24.3845 23.1874 22.3077 41.5882 25.4121 45.0761C28.5165 48.564 50.6209 45.874 50.6209 45.874C50.6209 45.874 22.3268 54.5857 21.1964 54.5741C20.0659 54.5624 18.8165 54.4557 17.4864 52.5319C16.1562 50.608 16.5272 48.8219 16.5272 48.8219Z" fill="url(#paint1_linear_12_5)"/>
<path d="M52.1896 43.6231L23.3448 48.7175L21.0419 46.9516C21.0419 46.9516 37.7159 39.2887 39.0111 34.7524C40.3064 30.216 26.3421 12.1048 26.3421 12.1048C26.3421 12.1048 53.9841 35.5356 54.5586 36.5396C55.1331 37.5435 55.6901 38.7014 54.7781 40.8662C53.8662 43.031 52.1896 43.6231 52.1896 43.6231Z" fill="url(#paint2_linear_12_5)"/>
<path d="M46.4159 40.688L21.0547 46.9365C21.0547 46.9365 37.4148 39.3095 38.7101 34.7732C40.0053 30.2368 26.3453 12.1083 26.3453 12.1083C26.3453 12.1083 48.2104 32.6005 48.7849 33.6045C49.3594 34.6084 49.9164 35.7663 49.0045 37.9311C48.0926 40.0959 46.4159 40.688 46.4159 40.688Z" fill="url(#paint3_linear_12_5)"/>
<path d="M21.4608 9.68673L41.7834 31.4094L41.6629 34.3631C41.6629 34.3631 26.1301 24.4542 21.7618 25.8964C17.3935 27.3387 10.7348 49.3656 10.7348 49.3656C10.7348 49.3656 13.9625 12.6967 14.4446 11.6436C14.9266 10.5905 15.542 9.46593 17.792 9.02808C20.042 8.59022 21.4608 9.68673 21.4608 9.68673Z" fill="url(#paint4_linear_12_5)"/>
<path d="M22.3505 16.2539L41.6607 34.3658C41.6607 34.3658 26.3127 24.6986 21.9427 26.1407C17.5726 27.5828 10.7154 49.3987 10.7154 49.3987C10.7154 49.3987 14.8493 19.2637 15.3315 18.2106C15.8137 17.1575 16.4294 16.033 18.6803 15.5952C20.9312 15.1574 22.3505 16.2539 22.3505 16.2539Z" fill="url(#paint5_linear_12_5)"/>
<defs>
<linearGradient id="paint0_linear_12_5" x1="35.6354" y1="57.4702" x2="13.8134" y2="30.0131" gradientUnits="userSpaceOnUse">
<stop offset="0.335207" stop-color="#686868"/>
<stop offset="1" stop-color="white"/>
</linearGradient>
<linearGradient id="paint1_linear_12_5" x1="38.5747" y1="54.9053" x2="19.0559" y2="27.577" gradientUnits="userSpaceOnUse">
<stop offset="0.172321" stop-color="white"/>
<stop offset="0.92758" stop-color="#686868"/>
</linearGradient>
<linearGradient id="paint2_linear_12_5" x1="43.7306" y1="19.3668" x2="30.5598" y2="52.1156" gradientUnits="userSpaceOnUse">
<stop offset="0.335207" stop-color="#686868"/>
<stop offset="1" stop-color="white"/>
</linearGradient>
<linearGradient id="paint3_linear_12_5" x1="40.0791" y1="18.0925" x2="25.8962" y2="48.675" gradientUnits="userSpaceOnUse">
<stop offset="0.172321" stop-color="white"/>
<stop offset="0.92758" stop-color="#686868"/>
</linearGradient>
<linearGradient id="paint4_linear_12_5" x1="6.76232" y1="30.5098" x2="40.3741" y2="23.0195" gradientUnits="userSpaceOnUse">
<stop offset="0.335207" stop-color="#686868"/>
<stop offset="1" stop-color="white"/>
</linearGradient>
<linearGradient id="paint5_linear_12_5" x1="39.9101" y1="26.8971" x2="7.46342" y2="32.465" gradientUnits="userSpaceOnUse">
<stop offset="0.172321" stop-color="#686868"/>
<stop offset="0.92758" stop-color="white"/>
</linearGradient>
</defs>
</svg>
