<svg width="920" height="522" viewBox="0 0 920 522" fill="none" xmlns="http://www.w3.org/2000/svg">
<path d="M81.2953 383.281L158.946 177.774L178.357 169.58C178.357 169.58 162.159 306.21 184.866 331.721C207.572 357.232 370.062 335.612 370.062 335.612C370.062 335.612 123.715 425.44 115.447 425.354C107.179 425.269 98.0402 424.488 88.311 410.417C78.5819 396.346 81.2953 383.281 81.2953 383.281Z" fill="url(#paint0_linear_12_42)"/>
<path d="M120.886 357.097L178.356 169.6C178.356 169.6 163.166 304.188 185.872 329.7C208.579 355.211 370.256 335.536 370.256 335.536C370.256 335.536 163.306 399.256 155.037 399.17C146.769 399.085 137.63 398.304 127.901 384.233C118.172 370.162 120.886 357.097 120.886 357.097Z" fill="url(#paint1_linear_12_42)"/>
<path d="M381.73 319.072L170.751 356.334L153.907 343.417C153.907 343.417 275.865 287.368 285.339 254.188C294.813 221.008 192.674 88.5375 192.674 88.5375C192.674 88.5375 394.855 259.917 399.057 267.261C403.26 274.604 407.334 283.073 400.663 298.907C393.993 314.741 381.73 319.072 381.73 319.072Z" fill="url(#paint2_linear_12_42)"/>
<path d="M339.501 297.604L154.001 343.306C154.001 343.306 273.664 287.521 283.138 254.341C292.612 221.161 192.699 88.5636 192.699 88.5636C192.699 88.5636 352.626 238.449 356.829 245.792C361.031 253.136 365.105 261.605 358.435 277.439C351.764 293.273 339.501 297.604 339.501 297.604Z" fill="url(#paint3_linear_12_42)"/>
<path d="M156.926 70.8489L305.634 229.737L304.753 251.341C304.753 251.341 191.095 178.862 159.131 189.411C127.167 199.959 78.4473 361.068 78.4473 361.068C78.4473 361.068 102.06 92.8631 105.587 85.1607C109.114 77.4582 113.617 69.2331 130.081 66.0308C146.544 62.8286 156.926 70.8489 156.926 70.8489Z" fill="url(#paint4_linear_12_42)"/>
<path d="M163.476 118.886L304.716 251.361C304.716 251.361 192.456 180.652 160.493 191.201C128.529 201.749 78.3728 361.316 78.3728 361.316C78.3728 361.316 108.609 140.9 112.137 133.198C115.664 125.495 120.167 117.27 136.63 114.068C153.094 110.866 163.476 118.886 163.476 118.886Z" fill="url(#paint5_linear_12_42)"/>
<path d="M521.511 184.926H564.511V336.585H521.511V184.926Z" fill="#B508FF"/>
<path d="M588.511 260.858V336.585H610H631.488V260.858V185.131H610H588.511V260.858Z" fill="#B508FF"/>
<path d="M640.483 201.811V218.594L650.678 219.208C660.173 219.72 661.072 219.924 663.171 222.483C665.17 224.836 665.47 226.269 665.47 234.046C665.47 238.958 665.17 243.973 664.87 245.303C663.871 249.089 659.573 250.624 649.478 250.624H640.483V267.919V285.316L644.681 285.623L648.979 285.93L658.074 311.001L667.269 336.073L690.356 336.38C703.049 336.483 713.444 336.483 713.444 336.278C713.444 336.073 708.546 323.486 702.55 308.341L691.655 280.813L693.754 279.38C694.954 278.562 698.052 275.696 700.651 273.036C707.047 266.384 709.346 258.606 710.145 240.903C711.245 214.808 707.247 199.764 697.153 192.601C688.757 186.768 684.259 185.847 661.272 185.335L640.483 184.926V201.811Z" fill="#B508FF"/>
<path d="M737.444 184.926H780.444V336.585H737.444V184.926Z" fill="#B508FF"/>
<path d="M838.003 185.922C826.153 187.914 816.494 192.992 811.913 199.763C806.536 207.531 805.042 213.207 804.544 228.243C804.046 245.171 805.341 253.536 809.623 260.805C815.896 271.261 825.555 275.344 852.641 278.53C873.453 281.02 873.951 281.219 875.146 284.206C875.644 285.501 876.042 297.749 876.042 311.292V336.087L880.822 335.589C902.53 333.498 913.782 324.237 917.965 304.919C918.662 301.633 919.259 293.169 919.16 285.999C919.06 260.407 912.886 248.657 897.252 244.375C894.066 243.479 882.315 241.587 871.063 240.193C859.91 238.798 850.151 237.106 849.454 236.508C848.459 235.711 848.16 229.637 848.16 210.219V184.926L845.471 185.026C843.878 185.125 840.592 185.524 838.003 185.922Z" fill="#B508FF"/>
<path d="M856.126 201.855V218.783L863.893 218.186C870.764 217.688 894.962 218.883 907.21 220.476L911.89 221.073V205.041V189.109L905.717 188.013C893.667 186.022 881.419 184.926 868.872 184.926H856.126V201.855Z" fill="#B508FF"/>
<path d="M808.328 316.072C808.328 325.034 808.627 332.303 809.125 332.303C809.523 332.303 815.199 333 821.772 333.797C828.344 334.494 841.488 335.49 850.948 335.888L868.076 336.585L867.877 319.358L867.578 302.23L853.637 302.33C845.969 302.33 832.626 301.832 824.062 301.135L808.328 299.94V316.072Z" fill="#B508FF"/>
<defs>
<linearGradient id="paint0_linear_12_42" x1="260.648" y1="420.353" x2="101.035" y2="219.525" gradientUnits="userSpaceOnUse">
<stop offset="0.335207" stop-color="#26043A"/>
<stop offset="1" stop-color="#B508FF"/>
</linearGradient>
<linearGradient id="paint1_linear_12_42" x1="282.147" y1="401.593" x2="139.381" y2="201.706" gradientUnits="userSpaceOnUse">
<stop offset="0.172321" stop-color="#B508FF"/>
<stop offset="0.92758" stop-color="#26043A"/>
</linearGradient>
<linearGradient id="paint2_linear_12_42" x1="319.858" y1="141.654" x2="223.524" y2="381.188" gradientUnits="userSpaceOnUse">
<stop offset="0.335207" stop-color="#26043A"/>
<stop offset="1" stop-color="#B508FF"/>
</linearGradient>
<linearGradient id="paint3_linear_12_42" x1="293.151" y1="132.334" x2="189.414" y2="356.023" gradientUnits="userSpaceOnUse">
<stop offset="0.172321" stop-color="#B508FF"/>
<stop offset="0.92758" stop-color="#26043A"/>
</linearGradient>
<linearGradient id="paint4_linear_12_42" x1="49.3768" y1="223.151" x2="295.309" y2="168.319" gradientUnits="userSpaceOnUse">
<stop offset="0.335207" stop-color="#26043A"/>
<stop offset="1" stop-color="#B508FF"/>
</linearGradient>
<linearGradient id="paint5_linear_12_42" x1="56.9353" y1="251.143" x2="294.26" y2="210.417" gradientUnits="userSpaceOnUse">
<stop offset="0.172321" stop-color="#B508FF"/>
<stop offset="0.92758" stop-color="#26043A"/>
</linearGradient>
</defs>
</svg>
