<svg width="72" height="72" viewBox="0 0 72 72" fill="none" xmlns="http://www.w3.org/2000/svg">
<path d="M11.1146 52.4017L21.7309 24.3051L24.3847 23.1848C24.3847 23.1848 22.1702 41.8646 25.2746 45.3525C28.379 48.8403 50.5944 45.8844 50.5944 45.8844C50.5944 45.8844 16.9142 58.1656 15.7837 58.1539C14.6533 58.1422 13.4039 58.0355 12.0737 56.1117C10.7436 54.1879 11.1146 52.4017 11.1146 52.4017Z" fill="url(#paint0_linear_12_4)"/>
<path d="M16.5275 48.8219L24.3848 23.1874C24.3848 23.1874 22.308 41.5882 25.4123 45.0761C28.5167 48.5639 50.6211 45.874 50.6211 45.874C50.6211 45.874 22.3271 54.5857 21.1966 54.574C20.0662 54.5624 18.8168 54.4556 17.4866 52.5318C16.1565 50.608 16.5275 48.8219 16.5275 48.8219Z" fill="url(#paint1_linear_12_4)"/>
<path d="M52.1896 43.6232L23.3448 48.7176L21.0419 46.9516C21.0419 46.9516 37.7159 39.2887 39.0111 34.7524C40.3064 30.216 26.3421 12.1048 26.3421 12.1048C26.3421 12.1048 53.9841 35.5356 54.5586 36.5396C55.1331 37.5436 55.6901 38.7014 54.7781 40.8662C53.8662 43.031 52.1896 43.6232 52.1896 43.6232Z" fill="url(#paint2_linear_12_4)"/>
<path d="M46.4162 40.688L21.0549 46.9364C21.0549 46.9364 37.4151 39.3095 38.7103 34.7731C40.0056 30.2368 26.3455 12.1083 26.3455 12.1083C26.3455 12.1083 48.2107 32.6005 48.7852 33.6044C49.3597 34.6084 49.9167 35.7663 49.0048 37.9311C48.0928 40.0958 46.4162 40.688 46.4162 40.688Z" fill="url(#paint3_linear_12_4)"/>
<path d="M21.4547 9.6864L41.786 31.4094L41.6655 34.363C41.6655 34.363 26.1263 24.4538 21.7562 25.896C17.3862 27.3381 10.7252 49.3648 10.7252 49.3648C10.7252 49.3648 13.9535 12.6961 14.4357 11.6431C14.918 10.59 15.5336 9.46547 17.7845 9.02767C20.0354 8.58987 21.4547 9.6864 21.4547 9.6864Z" fill="url(#paint4_linear_12_4)"/>
<path d="M22.35 16.2539L41.6602 34.3658C41.6602 34.3658 26.3122 24.6986 21.9422 26.1407C17.5721 27.5828 10.7149 49.3987 10.7149 49.3987C10.7149 49.3987 14.8488 19.2637 15.331 18.2106C15.8133 17.1575 16.4289 16.033 18.6798 15.5952C20.9307 15.1574 22.35 16.2539 22.35 16.2539Z" fill="url(#paint5_linear_12_4)"/>
<defs>
<linearGradient id="paint0_linear_12_4" x1="35.6354" y1="57.4702" x2="13.8134" y2="30.0131" gradientUnits="userSpaceOnUse">
<stop offset="0.335207" stop-color="#26043A"/>
<stop offset="1" stop-color="#B508FF"/>
</linearGradient>
<linearGradient id="paint1_linear_12_4" x1="38.5749" y1="54.9053" x2="19.0561" y2="27.577" gradientUnits="userSpaceOnUse">
<stop offset="0.172321" stop-color="#B508FF"/>
<stop offset="0.92758" stop-color="#26043A"/>
</linearGradient>
<linearGradient id="paint2_linear_12_4" x1="43.7306" y1="19.3668" x2="30.5598" y2="52.1157" gradientUnits="userSpaceOnUse">
<stop offset="0.335207" stop-color="#26043A"/>
<stop offset="1" stop-color="#B508FF"/>
</linearGradient>
<linearGradient id="paint3_linear_12_4" x1="40.0793" y1="18.0925" x2="25.8964" y2="48.675" gradientUnits="userSpaceOnUse">
<stop offset="0.172321" stop-color="#B508FF"/>
<stop offset="0.92758" stop-color="#26043A"/>
</linearGradient>
<linearGradient id="paint4_linear_12_4" x1="6.75077" y1="30.509" x2="40.3743" y2="23.0124" gradientUnits="userSpaceOnUse">
<stop offset="0.335207" stop-color="#26043A"/>
<stop offset="1" stop-color="#B508FF"/>
</linearGradient>
<linearGradient id="paint5_linear_12_4" x1="7.78397" y1="34.3359" x2="40.2306" y2="28.7679" gradientUnits="userSpaceOnUse">
<stop offset="0.172321" stop-color="#B508FF"/>
<stop offset="0.92758" stop-color="#26043A"/>
</linearGradient>
</defs>
</svg>
